<svg width="24" height="24" viewBox="0 0 24 24" fill="none" xmlns="http://www.w3.org/2000/svg">
<path d="M19.8658 3.99356C17.7072 1.83503 14.8372 0.64624 11.7845 0.64624C8.73185 0.64624 5.86189 1.83503 3.70328 3.99356C1.54475 6.15218 0.355957 9.02213 0.355957 12.0748C0.355957 15.1275 1.54475 17.9974 3.70328 20.1561C5.86189 22.3146 8.73185 23.5034 11.7845 23.5034C14.8372 23.5034 17.7072 22.3146 19.8658 20.1561C22.0243 17.9974 23.2131 15.1275 23.2131 12.0748C23.2131 9.02213 22.0243 6.15218 19.8658 3.99356ZM11.7845 21.0927C6.81207 21.0927 2.76667 17.0473 2.76667 12.0748C2.76667 7.10236 6.81207 3.05695 11.7845 3.05695C16.757 3.05695 20.8024 7.10236 20.8024 12.0748C20.8024 17.0473 16.757 21.0927 11.7845 21.0927Z" fill="#FFBB36"/>
</svg>
